<?xml version="1.0" encoding="UTF-8"?>
<svg id="_레이어_1" data-name="레이어_1" xmlns="http://www.w3.org/2000/svg" version="1.1" viewBox="0 0 192 192">
  <!-- Generator: Adobe Illustrator 29.1.0, SVG Export Plug-In . SVG Version: 2.1.0 Build 142)  -->
  <defs>
    <style>
      .st0 {
        fill: #002666;
      }

      .st1 {
        fill: #0086d1;
      }
    </style>
  </defs>
  <polygon class="st1" points="63.71 107 63.71 108.95 63.71 136.43 76.61 149.33 76.89 149.33 76.89 122.13 76.89 120.19 63.71 107"/>
  <polygon points="130.01 58.66 125.99 62.68 125.02 63.65 111.28 77.39 95.92 92.75 80.69 77.52 66.81 63.65 65.84 62.68 61.82 58.66 46 42.84 46 74.47 46 81.25 46.63 81.89 47.61 82.86 61.48 96.73 82.17 117.43 95.92 131.17 109.66 117.43 121.53 105.55 121.53 113.6 121.53 115.54 115.11 121.96 115.11 149.33 115.49 149.33 146 118.82 146 112.11 146 91.08 146 89.13 146 84.64 146 82.69 146 81.08 146 74.64 146 42.67 130.01 58.66"/>
  <polygon class="st0" points="57.46 100.76 46 89.3 46 91.24 46 112.21 46 118.73 59.18 131.91 59.18 104.43 59.18 102.48 57.46 100.76"/>
</svg>